<?xml version="1.0" standalone="no"?><!DOCTYPE svg PUBLIC "-//W3C//DTD SVG 1.1//EN" "http://www.w3.org/Graphics/SVG/1.1/DTD/svg11.dtd"><svg t="1696840396702" class="icon" viewBox="0 0 1024 1024" version="1.1" xmlns="http://www.w3.org/2000/svg" p-id="5402" xmlns:xlink="http://www.w3.org/1999/xlink" width="200" height="200"><path d="M831.7 859.1H108.9V110.5h566.5V64.6h-583c-15.6 0-28.3 13.1-28.3 29.2v782c0 16.1 12.7 29.2 28.3 29.2h755.8c15.6 0 28.3-13.1 28.3-29.2V273.2h-44.7v585.9z" fill="#266CA8" p-id="5403"></path><path d="M694.7 102.9h-40v183.8H838v-40H694.7zM654.7 64.6h40v38.3h-40zM838 246.7h38.3v40H838z" fill="#266CA8" p-id="5404"></path><path d="M693.912 64.176l182.785 182.785-28.284 28.284L665.628 92.46z" fill="#266CA8" p-id="5405"></path><path d="M822.1 822.4m-137.1 0a137.1 137.1 0 1 0 274.2 0 137.1 137.1 0 1 0-274.2 0Z" fill="#266CA8" p-id="5406"></path><path d="M739.5 802.4h165.3v40H739.5z" fill="#FFFFFF" p-id="5407"></path><path d="M842.109 739.753v165.3h-40v-165.3z" fill="#FFFFFF" p-id="5408"></path><path d="M389.8 153.5c-111 0-201 90-201 201s90 201 201 201 201-90 201-201-90-201-201-201z m0 359.7c-93.2 0-158.7-65.5-158.7-158.7 0-93.2 65.5-158.7 158.7-158.7 93.2 0 158.7 65.5 158.7 158.7 0 93.2-65.5 158.7-158.7 158.7z" fill="#266CA8" p-id="5409"></path><path d="M356.7 370.6c-7.4-7.4-7.4-19.5 0-26.9l61-111.3c7.4-7.4 19.5-7.4 26.9 0 7.4 7.4 7.4 19.5 0 26.9l-50.1 97.8 60 57.5c7.4 7.4 7.4 19.5 0 26.9-7.4 7.4-19.5 7.4-26.9 0l-70.9-70.9z" fill="#266CA8" p-id="5410"></path><path d="M221 602.8h370.5v40H221zM221 686.2h311.1v40H221zM221 769.6h370.5v40H221z" fill="#266CA8" p-id="5411"></path></svg>