<?xml version="1.0" standalone="no"?><!DOCTYPE svg PUBLIC "-//W3C//DTD SVG 1.1//EN" "http://www.w3.org/Graphics/SVG/1.1/DTD/svg11.dtd"><svg t="1696839936714" class="icon" viewBox="0 0 1024 1024" version="1.1" xmlns="http://www.w3.org/2000/svg" p-id="1502" xmlns:xlink="http://www.w3.org/1999/xlink" width="200" height="200"><path d="M476.070114 571.30082H23.797406a23.797093 23.797093 0 0 1-23.797093-23.83974V23.797093C0.000313 10.66178 10.662093 0 23.797406 0h377.256424a23.882387 23.882387 0 0 1 16.845612 6.951481l74.973637 75.016284a23.797093 23.797093 0 0 1 6.994128 16.802965v448.69035c0 13.17796-10.66178 23.83974-23.83974 23.83974zM47.594499 523.663987h404.678522V108.664862L391.244992 47.636833H47.594499v476.027154z" p-id="1503"></path><path d="M309.447816 261.853317H118.943131a23.797093 23.797093 0 1 1 0-47.636833H309.447816a23.797093 23.797093 0 1 1 0 47.594186zM380.839095 261.853317a24.010329 24.010329 0 0 1-16.845612-6.994127 23.967681 23.967681 0 0 1 16.845612-40.642706 23.967681 23.967681 0 0 1 23.797093 23.797093c0 6.269127-2.558827 12.410312-6.951481 16.845613a24.010329 24.010329 0 0 1-16.845612 6.95148zM309.447816 333.244596H118.943131a23.797093 23.797093 0 1 1 0-47.594186H309.447816a23.797093 23.797093 0 1 1 0 47.594186zM380.839095 333.244596a24.010329 24.010329 0 0 1-16.845612-6.95148 23.967681 23.967681 0 0 1 16.845612-40.642706 23.967681 23.967681 0 0 1 23.797093 23.797093c0 6.269127-2.558827 12.367665-6.951481 16.845613a24.010329 24.010329 0 0 1-16.845612 6.95148zM309.447816 404.635875H118.943131a23.797093 23.797093 0 0 1 0-47.594186H309.447816a23.797093 23.797093 0 1 1 0 47.594186zM380.839095 404.635875a24.010329 24.010329 0 0 1-16.845612-6.95148 23.967681 23.967681 0 0 1 16.845612-40.642706 23.967681 23.967681 0 0 1 23.797093 23.797093c0 6.269127-2.558827 12.410312-6.951481 16.845613a23.967681 23.967681 0 0 1-16.845612 6.95148zM309.447816 476.069801H118.943131a23.797093 23.797093 0 0 1 0-47.636833H309.447816a23.797093 23.797093 0 0 1 0 47.636833zM380.839095 476.069801a24.010329 24.010329 0 0 1-16.845612-6.994127 23.967681 23.967681 0 0 1 16.845612-40.642706 23.967681 23.967681 0 0 1 16.845612 40.642706 24.010329 24.010329 0 0 1-16.845612 6.994127zM999.734101 1023.530882H547.418746a23.797093 23.797093 0 0 1-23.797093-23.797093V476.069801c0-13.135313 10.66178-23.797093 23.797093-23.797093h377.256424a23.882387 23.882387 0 0 1 16.845613 6.951481l74.973637 74.973637a23.797093 23.797093 0 0 1 6.994127 16.845612v448.690351c0 13.17796-10.66178 23.83974-23.83974 23.83974z m-428.475615-47.594186h404.678522v-414.999126l-61.028028-61.070676H571.301133v476.069802z" p-id="1504"></path><path d="M833.069156 714.083378h-190.419391a23.797093 23.797093 0 0 1 0-47.594186h190.419391a23.797093 23.797093 0 0 1 0 47.594186zM904.503082 714.083378a23.967681 23.967681 0 0 1-16.845612-40.642705 23.967681 23.967681 0 0 1 33.691225 0 23.967681 23.967681 0 0 1 0 33.691225 24.010329 24.010329 0 0 1-16.845613 6.95148zM833.069156 785.474657h-190.419391a23.797093 23.797093 0 1 1 0-47.594186h190.419391a23.797093 23.797093 0 1 1 0 47.594186zM904.503082 785.474657a23.967681 23.967681 0 0 1-16.845612-40.642705 23.967681 23.967681 0 0 1 33.691225 0 23.967681 23.967681 0 0 1 6.95148 16.845612 23.967681 23.967681 0 0 1-23.797093 23.797093zM833.069156 856.908584h-190.419391a23.797093 23.797093 0 0 1 0-47.594186h190.419391a23.797093 23.797093 0 0 1 0 47.594186zM904.503082 856.908584a23.967681 23.967681 0 0 1-16.845612-40.642706 23.967681 23.967681 0 0 1 33.691225 0 23.925034 23.925034 0 0 1 0 33.691225 24.010329 24.010329 0 0 1-16.845613 6.951481zM833.069156 928.299863h-190.419391a23.797093 23.797093 0 0 1 0-47.594186h190.419391a23.797093 23.797093 0 0 1 0 47.594186zM904.503082 928.299863a23.967681 23.967681 0 0 1-16.845612-40.642706 23.967681 23.967681 0 0 1 33.691225 0 23.967681 23.967681 0 0 1 0 33.691225 23.967681 23.967681 0 0 1-16.845613 6.951481zM785.47497 404.635875a23.797093 23.797093 0 0 1-23.797093-23.797093V166.622298h-190.419391a23.797093 23.797093 0 0 1-21.32356-34.458873l23.83974-47.594186a23.797093 23.797093 0 1 1 42.561826 21.280913l-6.567656 13.17796h175.706134c13.17796 0 23.83974 10.66178 23.83974 23.797093v237.97093c0 13.220607-10.66178 23.882387-23.83974 23.882387z" p-id="1505"></path><path d="M595.098226 214.216484a23.797093 23.797093 0 0 1-21.32356-13.17796l-23.797093-47.594186a23.797093 23.797093 0 1 1 42.561826-21.32356l23.797093 47.636833a23.797093 23.797093 0 0 1-21.238266 34.458873zM452.230374 880.663029H214.216797a23.797093 23.797093 0 0 1-23.797093-23.754445v-175.706135l-13.17796 6.567656a23.797093 23.797093 0 1 1-21.280913-42.604473l47.594186-23.797093a23.797093 23.797093 0 0 1 34.458873 21.32356v190.376744h214.216484a23.797093 23.797093 0 0 1 0 47.636834z" p-id="1506"></path><path d="M261.810983 690.286285a23.711799 23.711799 0 0 1-10.66178-2.51618l-47.594186-23.797093a23.797093 23.797093 0 1 1 21.32356-42.561825l47.594186 23.797093a23.797093 23.797093 0 0 1-10.66178 45.078005z" p-id="1507"></path></svg>